<?xml version="1.0" standalone="no"?>
<!DOCTYPE svg PUBLIC "-//W3C//DTD SVG 20010904//EN"
 "http://www.w3.org/TR/2001/REC-SVG-20010904/DTD/svg10.dtd">
<svg version="1.0" xmlns="http://www.w3.org/2000/svg"
 width="1536.000000pt" height="1024.000000pt" viewBox="0 0 1536.000000 1024.000000"
 preserveAspectRatio="xMidYMid meet">

<g transform="translate(0.000000,1024.000000) scale(0.100000,-0.100000)"
fill="#000000" stroke="none">
<path d="M7525 6963 c-281 -24 -573 -140 -809 -321 -273 -210 -488 -559 -547
-892 -21 -117 -18 -444 5 -549 70 -324 225 -594 464 -807 214 -190 436 -303
722 -366 92 -20 132 -23 320 -22 237 0 316 11 490 66 457 145 827 511 975 962
49 150 68 276 68 451 0 405 -145 749 -437 1040 -261 259 -528 388 -906 434
-79 10 -252 12 -345 4z m340 -154 c189 -23 380 -92 554 -200 128 -79 322 -263
400 -382 110 -165 186 -349 217 -527 24 -141 15 -390 -20 -525 -47 -185 -119
-335 -233 -487 -205 -271 -500 -453 -837 -515 -127 -24 -409 -23 -531 0 -271
52 -496 170 -697 366 -199 192 -324 416 -383 684 -25 112 -30 351 -11 472 44
264 161 495 356 699 303 317 739 470 1185 415z"/>
<path d="M7677 6660 c-10 -25 -35 -188 -96 -613 -32 -225 -63 -412 -67 -417
-5 -4 -76 -17 -159 -28 -406 -57 -920 -133 -923 -137 -6 -6 7 -8 583 -90 232
-33 499 -75 503 -79 3 -4 17 -96 98 -653 32 -221 60 -401 61 -399 3 3 41 247
113 731 17 110 35 227 41 261 l10 60 192 28 c106 15 332 49 502 76 171 26 332
51 358 55 27 3 47 8 45 11 -5 4 -224 38 -813 124 -154 23 -282 46 -285 51 -5
8 -42 250 -134 879 -13 85 -26 148 -29 140z"/>
</g>
</svg>
